<?xml version="1.0" encoding="UTF-8" standalone="no"?>
<!-- Created with Inkscape (http://www.inkscape.org/) -->

<svg
   width="500"
   height="500"
   viewBox="0 0 132.29166 132.29166"
   version="1.1"
   id="svg11127"
   inkscape:version="1.2.1 (9c6d41e410, 2022-07-14)"
   sodipodi:docname="DataCan - Icon - Grey on Transparent.svg"
   inkscape:export-filename="DataCan - Icon - 100 x 100.png"
   inkscape:export-xdpi="221.53847"
   inkscape:export-ydpi="221.53847"
   xmlns:inkscape="http://www.inkscape.org/namespaces/inkscape"
   xmlns:sodipodi="http://sodipodi.sourceforge.net/DTD/sodipodi-0.dtd"
   xmlns="http://www.w3.org/2000/svg"
   xmlns:svg="http://www.w3.org/2000/svg">
  <sodipodi:namedview
     id="namedview11129"
     pagecolor="#505050"
     bordercolor="#eeeeee"
     borderopacity="1"
     inkscape:showpageshadow="0"
     inkscape:pageopacity="0"
     inkscape:pagecheckerboard="0"
     inkscape:deskcolor="#505050"
     inkscape:document-units="mm"
     showgrid="false"
     inkscape:zoom="1.0544998"
     inkscape:cx="-11.379803"
     inkscape:cy="196.3016"
     inkscape:window-width="1920"
     inkscape:window-height="1017"
     inkscape:window-x="1912"
     inkscape:window-y="-8"
     inkscape:window-maximized="1"
     inkscape:current-layer="layer1" />
  <defs
     id="defs11124">
    <clipPath
       clipPathUnits="userSpaceOnUse"
       id="clipPath28206">
      <g
         id="g28210"
         transform="matrix(2.9222461,0,0,-2.9222459,-269.52677,24.850942)">
        <path
           d="M -0.62541912,-0.38390271 H 105.56687 V 34.602886 H -0.62541912 Z"
           id="path28208"
           style="stroke-width:0.342203" />
      </g>
    </clipPath>
    <clipPath
       clipPathUnits="userSpaceOnUse"
       id="clipPath28212">
      <g
         id="g28216"
         transform="matrix(2.9222461,0,0,-2.9222459,-180.30807,74.80704)">
        <path
           d="M -0.62541912,-0.38390271 H 105.56687 V 34.602886 H -0.62541912 Z"
           id="path28214"
           style="stroke-width:0.342203" />
      </g>
    </clipPath>
    <clipPath
       clipPathUnits="userSpaceOnUse"
       id="clipPath28218">
      <g
         id="g28222"
         transform="matrix(2.9222461,0,0,-2.9222459,-197.14687,59.654643)">
        <path
           d="M -0.62541912,-0.38390271 H 105.56687 V 34.602886 H -0.62541912 Z"
           id="path28220"
           style="stroke-width:0.342203" />
      </g>
    </clipPath>
    <clipPath
       clipPathUnits="userSpaceOnUse"
       id="clipPath28224">
      <g
         id="g28228"
         transform="matrix(2.9222461,0,0,-2.9222459,-127.89977,59.654643)">
        <path
           d="M -0.62541912,-0.38390271 H 105.56687 V 34.602886 H -0.62541912 Z"
           id="path28226"
           style="stroke-width:0.342203" />
      </g>
    </clipPath>
    <clipPath
       clipPathUnits="userSpaceOnUse"
       id="clipPath28230">
      <g
         id="g28234"
         transform="matrix(2.9222461,0,0,-2.9222459,-247.84417,74.745542)">
        <path
           d="M -0.62541912,-0.38390271 H 105.56687 V 34.602886 H -0.62541912 Z"
           id="path28232"
           style="stroke-width:0.342203" />
      </g>
    </clipPath>
    <clipPath
       clipPathUnits="userSpaceOnUse"
       id="clipPath28236">
      <g
         id="g28240"
         transform="matrix(2.9222461,0,0,-2.9222459,-126.87637,44.685941)">
        <path
           d="M -0.62541912,-0.38390271 H 105.56687 V 34.602886 H -0.62541912 Z"
           id="path28238"
           style="stroke-width:0.342203" />
      </g>
    </clipPath>
    <clipPath
       clipPathUnits="userSpaceOnUse"
       id="clipPath28242">
      <g
         id="g28246"
         transform="matrix(2.9222461,0,0,-2.9222459,-72.486773,59.654643)">
        <path
           d="M -0.62541912,-0.38390271 H 105.56687 V 34.602886 H -0.62541912 Z"
           id="path28244"
           style="stroke-width:0.342203" />
      </g>
    </clipPath>
    <clipPath
       clipPathUnits="userSpaceOnUse"
       id="clipPath28248">
      <g
         id="g28252"
         transform="matrix(2.9222461,0,0,-2.9222459,-33.131272,66.986742)">
        <path
           d="M -0.62541912,-0.38390271 H 105.56687 V 34.602886 H -0.62541912 Z"
           id="path28250"
           style="stroke-width:0.342203" />
      </g>
    </clipPath>
  </defs>
  <g
     inkscape:label="Layer 1"
     inkscape:groupmode="layer"
     id="layer1">
    <g
       id="g468"
       transform="matrix(0.34220253,0,0,-0.34220255,4.628799,17.881188)"
       clip-path="url(#clipPath28248)"
       style="fill:#d0d2d5;fill-opacity:1" />
    <g
       id="g4330"
       transform="matrix(3.8090371,0,0,-3.8090371,66.08108,-4.2671668e-7)"
       clip-path="url(#clipPath28206)"
       style="fill:#32e6e6;fill-opacity:0.7">
      <path
         d="m 0,0 c 0.343,-0.55 2.298,-5.5 3.054,-5.814 0.754,-0.316 2.847,1.375 2.847,1.375 0,0 -1.269,-7.702 -1.441,-8.488 -0.171,-0.785 0.515,-1.099 0.857,-0.864 0.344,0.236 3.672,4.44 3.672,4.44 0,0 0.652,-1.807 0.892,-2.2 0.24,-0.393 0.927,-0.315 1.063,-0.393 0.138,-0.078 3.431,0.629 3.431,0.629 0,0 -1.304,-4.44 -1.338,-4.912 -0.034,-0.471 0.494,-1.307 1.579,-1.65 v -0.006 c -0.086,-0.181 -5.365,-4.525 -6.039,-5.259 -0.686,-0.746 -1.372,-0.942 -1.098,-2.082 0.275,-1.139 0.686,-2.397 0.686,-2.397 0,0 -5.729,1.219 -6.038,1.258 -0.309,0.039 -1.167,0.353 -1.27,-0.668 -0.103,-1.022 0.171,-7.7 0.171,-7.7 h -2.127 c 0,0 0.481,7.307 0.241,7.818 -0.241,0.511 -0.309,0.746 -1.098,0.589 -0.789,-0.157 -6.244,-1.296 -6.244,-1.296 0,0 0.651,1.807 0.685,2.671 0.035,0.865 -0.171,1.1 -0.445,1.336 -0.274,0.236 -6.622,5.775 -6.622,5.775 0,0 1.132,0.786 1.406,1.022 0.275,0.236 -0.99,4.755 -1.132,5.343 -0.067,0.277 2.574,-0.471 3.363,-0.549 0.789,-0.08 1.029,0.471 1.132,0.746 0.103,0.275 0.789,2.043 0.789,2.043 0,0 2.298,-2.789 2.47,-3.065 0.172,-0.274 1.27,-1.571 1.578,-1.571 0.309,0 0.619,0.314 0.447,1.14 -0.172,0.825 -1.408,8.329 -1.408,8.329 0,0 1.922,-1.297 2.334,-1.414 0.412,-0.119 0.79,0 1.27,0.785 C -1.854,-4.243 0,0 0,0"
         style="fill:#32e6e6;fill-opacity:0.7;fill-rule:evenodd;stroke:none"
         id="path4328" />
    </g>
    <g
       id="g1624"
       transform="translate(0,37.668335)">
      <g
         id="g492"
         transform="matrix(2.2124795,0,0,-2.2124797,113.46568,94.623332)"
         clip-path="url(#clipPath28212)"
         style="fill:#d0d2d5;fill-opacity:0.7">
        <path
           d="M 0,0 H 8.509 V 7.638 H 0 c -9.286,0 -13.196,6.659 -13.38,13.318 -0.183,6.965 3.666,14.053 13.38,14.053 h 8.509 v 7.759 H 0 c -14.969,0 -21.567,-10.937 -21.384,-21.75 C -21.2,10.447 -14.663,0 0,0"
           style="fill:#d0d2d5;fill-opacity:0.7;fill-rule:nonzero;stroke:none"
           id="path490" />
      </g>
      <g
         id="g4310"
         transform="matrix(-2.2124795,0,0,-2.2124797,18.825986,94.623332)"
         clip-path="url(#clipPath28212)"
         style="fill:#d0d2d5;fill-opacity:0.7">
        <path
           d="M 0,0 H 8.509 V 7.638 H 0 c -9.286,0 -13.196,6.659 -13.38,13.318 -0.183,6.965 3.666,14.053 13.38,14.053 h 8.509 v 7.759 H 0 c -14.969,0 -21.567,-10.937 -21.384,-21.75 C -21.2,10.447 -14.663,0 0,0"
           style="fill:#d0d2d5;fill-opacity:0.7;fill-rule:nonzero;stroke:none"
           id="path4308" />
      </g>
    </g>
  </g>
</svg>
