<?xml version="1.0" encoding="UTF-8" standalone="no"?>
<svg
   xmlns:dc="http://purl.org/dc/elements/1.1/"
   xmlns:cc="http://creativecommons.org/ns#"
   xmlns:rdf="http://www.w3.org/1999/02/22-rdf-syntax-ns#"
   xmlns:svg="http://www.w3.org/2000/svg"
   xmlns="http://www.w3.org/2000/svg"
   xmlns:sodipodi="http://sodipodi.sourceforge.net/DTD/sodipodi-0.dtd"
   xmlns:inkscape="http://www.inkscape.org/namespaces/inkscape"
   width="23"
   height="23"
   viewBox="0 0 6.0854165 6.0854168"
   version="1.1"
   id="svg8"
   inkscape:version="1.0.2-2 (e86c870879, 2021-01-15)"
   sodipodi:docname="menu.svg">
  <defs
     id="defs2" />
  <sodipodi:namedview
     id="base"
     pagecolor="#ffffff"
     bordercolor="#666666"
     borderopacity="1.0"
     inkscape:pageopacity="0.0"
     inkscape:pageshadow="2"
     inkscape:zoom="15.839192"
     inkscape:cx="7.8110104"
     inkscape:cy="12.966584"
     inkscape:document-units="px"
     inkscape:current-layer="layer1"
     showgrid="false"
     units="px"
     borderlayer="true"
     inkscape:window-width="1509"
     inkscape:window-height="953"
     inkscape:window-x="2298"
     inkscape:window-y="28"
     inkscape:window-maximized="0"
     inkscape:document-rotation="0" />
  <metadata
     id="metadata5">
    <rdf:RDF>
      <cc:Work
         rdf:about="">
        <dc:format>image/svg+xml</dc:format>
        <dc:type
           rdf:resource="http://purl.org/dc/dcmitype/StillImage" />
        <dc:title />
      </cc:Work>
    </rdf:RDF>
  </metadata>
  <g
     inkscape:label="Layer 1"
     inkscape:groupmode="layer"
     id="layer1"
     transform="translate(0,-290.91457)">
    <path
       style="fill:#282828;fill-opacity:1;stroke:none;stroke-width:7.0743742;stroke-miterlimit:4;stroke-dasharray:none;stroke-opacity:1"
       d="M 0 0 L 0 23 L 23 23 L 23 0 L 0 0 z M 4.5 4 L 18.5 4 C 19.331 4 20 4.669 20 5.5 C 20 6.331 19.331 7 18.5 7 L 4.5 7 C 3.669 7 3 6.331 3 5.5 C 3 4.669 3.669 4 4.5 4 z M 4.5 10 L 18.5 10 C 19.331 10 20 10.669 20 11.5 C 20 12.331 19.331 13 18.5 13 L 4.5 13 C 3.669 13 3 12.331 3 11.5 C 3 10.669 3.669 10 4.5 10 z M 4.5 16 L 18.5 16 C 19.331 16 20 16.669 20 17.5 C 20 18.331 19.331 19 18.5 19 L 4.5 19 C 3.669 19 3 18.331 3 17.5 C 3 16.669 3.669 16 4.5 16 z "
       transform="matrix(0.26458333,0,0,0.26458333,0,290.91457)"
       id="rect815" />
  </g>
</svg>
